<?xml version="1.0" encoding="utf-8"?>
<!-- Generator: Adobe Illustrator 22.0.1, SVG Export Plug-In . SVG Version: 6.00 Build 0)  -->
<svg version="1.1" xmlns="http://www.w3.org/2000/svg" xmlns:xlink="http://www.w3.org/1999/xlink" x="0px" y="0px"
	 viewBox="0 0 145 31" style="enable-background:new 0 0 145 31;" xml:space="preserve">
<style type="text/css">
	.st0{display:none;}
	.st1{display:inline;}
	.st2{fill:#153B64;}
	.st3{fill:#455283;}
</style>
<g id="Layer_1" class="st0">
	<title>Group 35</title>
	<desc>Created with Sketch.</desc>
	<g id="Design-Concepts" class="st1">
		<g id="Home---banner-options" transform="translate(-648.000000, -980.000000)">
			<g id="Group-35" transform="translate(648.000000, 980.000000)">
				<path id="Fill-1" class="st2" d="M0,16v-0.3c0.1,0,0.3-0.1,0.3-0.3V8.3C0.3,8.1,0.1,8,0,8V7.7h2.5V8c-0.1,0-0.1,0-0.1,0.2
					c0,0.1,0.1,0.2,0.3,0.4l4.2,4.7v-5C6.9,8.1,6.7,8,6.5,8V7.7h2.2V8C8.5,8,8.4,8.1,8.4,8.3v7.1c0,0.2,0.1,0.3,0.3,0.3V16H6.3v-0.3
					c0.1,0,0.2,0,0.2-0.1c0-0.1-0.1-0.2-0.2-0.4l-4.5-5v5.2c0,0.2,0.1,0.3,0.3,0.3V16H0z"/>
				<path id="Fill-4" class="st2" d="M11.9,16v-0.3c-0.1,0-0.3-0.1-0.3-0.2s0.1-0.3,0.1-0.5l0.5-1.1h3.6l0.6,1.2
					c0.1,0.2,0.1,0.3,0.1,0.4c0,0.1-0.2,0.2-0.2,0.2V16h2.6v-0.3c-0.2-0.1-0.4-0.2-0.5-0.4l-3-6.4c-0.1-0.3-0.2-0.4-0.2-0.6
					c0-0.2,0.2-0.3,0.3-0.3V7.7H13V8c0.1,0,0.3,0.1,0.3,0.3c0,0.2-0.1,0.4-0.3,0.7l-2.7,6.1c-0.1,0.3-0.3,0.6-0.5,0.6V16H11.9z
					 M14.1,9.9l1.2,2.9h-2.6L14.1,9.9z"/>
				<path id="Fill-6" class="st2" d="M22.8,15.4c0,0.2,0.1,0.3,0.3,0.3V16h-2.2v-0.3c0.1,0,0.3-0.1,0.3-0.3V9.2h-2.4
					c-0.2,0-0.4,0.1-0.4,0.4h-0.3V7.4h0.3c0,0.3,0.2,0.4,0.4,0.4h6.5c0.2,0,0.4-0.1,0.4-0.4h0.3v2.2h-0.3c0-0.3-0.2-0.4-0.4-0.4
					h-2.4V15.4z"/>
				<path id="Fill-8" class="st2" d="M26.9,16v-0.3c0.2,0,0.4-0.1,0.4-0.3V8.3c0-0.2-0.1-0.3-0.4-0.3V7.7h2.4V8
					c-0.2,0-0.4,0.1-0.4,0.3v7.1c0,0.2,0.1,0.3,0.4,0.3V16H26.9z"/>
				<path id="Fill-10" class="st2" d="M35.1,7.6c-2.1,0-4.7,1.3-4.7,4.2c0,2.9,2.6,4.2,4.7,4.2c2.1,0,4.7-1.3,4.7-4.2
					C39.8,9,37.3,7.6,35.1,7.6 M35.1,9.1c1.5,0,3.1,1,3.1,2.8s-1.6,2.8-3.1,2.8c-1.5,0-3.1-1-3.1-2.8S33.6,9.1,35.1,9.1"/>
				<path id="Fill-12" class="st2" d="M40.9,16v-0.3c0.1,0,0.3-0.1,0.3-0.3V8.3C41.2,8.1,41,8,40.9,8V7.7h2.5V8
					c-0.1,0-0.1,0-0.1,0.2c0,0.1,0.1,0.2,0.3,0.4l4.2,4.7v-5c0-0.2-0.1-0.3-0.4-0.3V7.7h2.2V8c-0.1,0-0.3,0.1-0.3,0.3v7.1
					c0,0.2,0.1,0.3,0.3,0.3V16h-2.4v-0.3c0.1,0,0.2,0,0.2-0.1c0-0.1-0.1-0.2-0.2-0.4l-4.5-5v5.2c0,0.2,0.1,0.3,0.3,0.3V16H40.9z"/>
				<path id="Fill-14" class="st2" d="M52.7,16v-0.3c-0.1,0-0.3-0.1-0.3-0.2s0.1-0.3,0.1-0.5l0.5-1.1h3.6l0.6,1.2
					c0.1,0.2,0.1,0.3,0.1,0.4c0,0.1-0.2,0.2-0.2,0.2V16h2.6v-0.3c-0.2-0.1-0.4-0.2-0.5-0.4l-3-6.4c-0.1-0.3-0.2-0.4-0.2-0.6
					c0-0.2,0.2-0.3,0.3-0.3V7.7h-2.5V8c0.1,0,0.3,0.1,0.3,0.3c0,0.2-0.1,0.4-0.3,0.7l-2.7,6.1c-0.1,0.3-0.3,0.6-0.5,0.6V16H52.7z
					 M54.9,9.9l1.2,2.9h-2.6L54.9,9.9z"/>
				<path id="Fill-16" class="st2" d="M67.9,16.3c0-0.3-0.2-0.3-0.5-0.3h-6.9v-0.3c0.3,0,0.4-0.1,0.4-0.3V8.3c0-0.2-0.1-0.3-0.4-0.3
					V7.7H63V8c-0.3,0-0.4,0.1-0.4,0.3v6.2h4.8c0.3,0,0.5-0.2,0.5-0.4h0.3v2.2H67.9z"/>
				<path id="Fill-18" class="st2" d="M77.3,15.4c0,0.2,0.1,0.3,0.3,0.3V16h-2.2v-0.3c0.1,0,0.3-0.1,0.3-0.3V9.2h-2.4
					c-0.2,0-0.4,0.1-0.4,0.4h-0.3V7.4h0.3c0,0.3,0.2,0.4,0.4,0.4h6.5c0.2,0,0.4-0.1,0.4-0.4h0.3v2.2h-0.3c0-0.3-0.2-0.4-0.4-0.4
					h-2.4V15.4z"/>
				<path id="Fill-20" class="st2" d="M81.8,8c0.3,0,0.4,0.1,0.4,0.3v7.1c0,0.2-0.1,0.3-0.4,0.3V16h2.5v-0.3c-0.3,0-0.4-0.1-0.4-0.3
					v-2.8h2.1l1.6,2.4c0.1,0.2,0.2,0.3,0.2,0.5c0,0.1-0.1,0.2-0.3,0.2V16h2.7v-0.3c-0.2,0-0.4,0-0.5-0.2l-1.9-3
					c1.3-0.3,2.1-1,2.1-2.3c0-1.8-1.2-2.4-3.1-2.4h-5V8z M83.9,9.1h2.5c1.4,0,1.8,0.5,1.8,1.2c0,0.7-0.4,1.2-1.8,1.2h-2.5V9.1z"/>
				<path id="Fill-22" class="st2" d="M93.3,16v-0.3c-0.1,0-0.3-0.1-0.3-0.2s0.1-0.3,0.1-0.5l0.5-1.1h3.6l0.6,1.2
					c0.1,0.2,0.1,0.3,0.1,0.4c0,0.1-0.2,0.2-0.2,0.2V16h2.6v-0.3c-0.2-0.1-0.4-0.2-0.5-0.4l-3-6.4c-0.1-0.3-0.2-0.4-0.2-0.6
					c0-0.2,0.2-0.3,0.3-0.3V7.7h-2.5V8c0.1,0,0.3,0.1,0.3,0.3c0,0.2-0.1,0.4-0.3,0.7l-2.7,6.1c-0.1,0.3-0.3,0.6-0.5,0.6V16H93.3z
					 M95.5,9.9l1.2,2.9h-2.6L95.5,9.9z"/>
				<path id="Fill-24" class="st2" d="M101.3,16v-0.3c0.2,0,0.4-0.1,0.4-0.3V8.3c0-0.2-0.1-0.3-0.4-0.3V7.7h2.4V8
					c-0.2,0-0.4,0.1-0.4,0.3v7.1c0,0.2,0.1,0.3,0.4,0.3V16H101.3z"/>
				<path id="Fill-26" class="st2" d="M112.6,16.3c0-0.3-0.2-0.3-0.5-0.3h-6.9v-0.3c0.3,0,0.4-0.1,0.4-0.3V8.3
					c0-0.2-0.1-0.3-0.4-0.3V7.7h2.5V8c-0.3,0-0.4,0.1-0.4,0.3v6.2h4.8c0.3,0,0.5-0.2,0.5-0.4h0.3v2.2H112.6z"/>
				<path id="Fill-28" class="st2" d="M113.6,15.3l0.9-1.9l0.2,0.1c0,0.1,0,0.2,0.1,0.3c0.3,0.5,1.9,1,2.9,1c0.7,0,2.5-0.2,2.5-1.1
					c0-1.9-6.4,0.5-6.4-3.4c0-1.3,1.2-2.6,3.8-2.6c2.2,0,3.2,0.8,3.8,0.8c0.2,0,0.3,0,0.3-0.1l0.2,0.1l-1.1,2l-0.2-0.1
					c0-0.1-0.1-0.3-0.1-0.4c-0.3-0.5-1.6-1-2.9-1c-0.9,0-2.1,0.3-2.1,1c0,2,6.4-0.3,6.4,3.4c0,2.2-2.6,2.7-4.3,2.7
					c-2.4,0-3.1-0.8-3.5-0.8c-0.1,0-0.2,0.1-0.2,0.1L113.6,15.3z"/>
				<path id="Fill-30" class="st2" d="M142.1,19c1,0,1.9,0.6,1.9,1.8c0,2.7-8.1,6.1-8.1,6.1l-7.5,3.3l-0.6-1l4.7-2.2
					c-0.7-0.3-8.2-3.6-8.2-6.2c0-1.2,0.9-1.8,1.9-1.8C126.8,19,142.1,19,142.1,19"/>
				<path id="Fill-32" class="st2" d="M134.2,17.8h-7.1c0,0-1.2-4.3-1-10.4c0.2-4.5,8-7.4,8-7.4s7.9,3,8,7.4c0.3,6.1-1,10.4-1,10.4
					H134.2L134.2,17.8z"/>
			</g>
		</g>
	</g>
</g>
<g id="Layer_2" class="st0">
	<g class="st1">
		<path class="st3" d="M142.3,19.2c0,0-14,0-14.4,0c-0.9,0-1.8,0.5-1.8,1.6c0,2.4,6.8,5.3,7.4,5.6l-4.3,2l0.6,0.9l6.8-3
			c0,0,7.4-3,7.4-5.5C144,19.7,143.2,19.2,142.3,19.2z"/>
		<path class="st3" d="M135.1,18.2L135.1,18.2h6.4c0,0,1.1-3.9,0.9-9.5c-0.2-4.1-7.3-6.8-7.3-6.8s-7.1,2.7-7.3,6.8
			c-0.2,5.6,0.9,9.5,0.9,9.5H135.1z"/>
	</g>
	<g class="st1">
		<g>
			<path class="st3" d="M2.8,11.1l5.4,6.3v-6.3h1.7v9.1H8.4l-5.4-6.4v6.4H1.2v-9.1H2.8z"/>
			<path class="st3" d="M16.5,11.1l4,9.1h-1.9L17.7,18h-4l-0.9,2.2h-1.8l3.7-9.1H16.5z M14.2,16.7h2.9l-1.5-3.6L14.2,16.7z"/>
			<path class="st3" d="M28,11.1v1.4h-3.2v7.7H23v-7.7h-3.2v-1.4H28z"/>
			<path class="st3" d="M31.1,11.1v9.1h-1.8v-9.1H31.1z"/>
			<path class="st3" d="M37.8,11c0.9,0,1.8,0.2,2.5,0.6c0.8,0.4,1.3,0.9,1.8,1.7c0.4,0.7,0.7,1.5,0.7,2.4c0,0.8-0.2,1.6-0.7,2.4
				c-0.4,0.7-1,1.3-1.8,1.7c-0.8,0.4-1.6,0.6-2.6,0.6c-0.9,0-1.8-0.2-2.6-0.6c-0.8-0.4-1.4-1-1.8-1.7c-0.4-0.7-0.6-1.5-0.6-2.4
				c0-0.8,0.2-1.6,0.6-2.3c0.4-0.7,1-1.3,1.8-1.7C36,11.2,36.8,11,37.8,11z M34.6,15.7c0,0.6,0.1,1.1,0.4,1.6
				c0.3,0.5,0.7,0.9,1.1,1.1c0.5,0.3,1,0.4,1.7,0.4c0.9,0,1.7-0.3,2.3-0.9c0.6-0.6,0.9-1.3,0.9-2.3c0-0.6-0.1-1.1-0.4-1.6
				c-0.3-0.5-0.7-0.9-1.1-1.1c-0.5-0.3-1-0.4-1.7-0.4c-0.6,0-1.2,0.1-1.7,0.4c-0.5,0.3-0.9,0.6-1.1,1.1
				C34.7,14.5,34.6,15.1,34.6,15.7z"/>
			<path class="st3" d="M46,11.1l5.4,6.3v-6.3h1.7v9.1h-1.5l-5.4-6.4v6.4h-1.7v-9.1H46z"/>
			<path class="st3" d="M59.7,11.1l4,9.1h-1.9L60.9,18h-4L56,20.2h-1.8l3.7-9.1H59.7z M57.4,16.7h2.9l-1.5-3.6L57.4,16.7z"/>
			<path class="st3" d="M66.5,11.1v7.7h4.4v1.4h-6.2v-9.1H66.5z"/>
			<path class="st3" d="M84,11.1v1.4h-3.2v7.7H79v-7.7h-3.2v-1.4H84z"/>
			<path class="st3" d="M88.4,11.1c0.9,0,1.5,0.2,2.1,0.7c0.5,0.5,0.8,1.1,0.8,1.8c0,0.5-0.1,1-0.4,1.3s-0.7,0.7-1.2,0.9
				c0.3,0.2,0.5,0.4,0.8,0.6c0.2,0.3,0.5,0.7,0.8,1.4c0.6,1.1,1,1.9,1.2,2.3h-2c-0.1-0.2-0.3-0.5-0.5-1c-0.5-1-0.9-1.6-1.1-2
				c-0.2-0.3-0.5-0.6-0.7-0.7c-0.2-0.1-0.5-0.2-0.7-0.2h-0.6v3.8h-1.8v-9.1H88.4z M88,15c0.5,0,0.8-0.1,1.1-0.3
				c0.3-0.2,0.4-0.5,0.4-0.9c0-0.4-0.1-0.7-0.4-0.9s-0.6-0.3-1.1-0.3h-1.1V15H88z"/>
			<path class="st3" d="M98.5,11.1l4,9.1h-1.9L99.7,18h-4l-0.9,2.2h-1.8l3.7-9.1H98.5z M96.2,16.7h2.9l-1.5-3.6L96.2,16.7z"/>
			<path class="st3" d="M105.3,11.1v9.1h-1.8v-9.1H105.3z"/>
			<path class="st3" d="M108.9,11.1v7.7h4.4v1.4h-6.2v-9.1H108.9z"/>
			<path class="st3" d="M117.1,11c0.9,0,1.7,0.2,2.6,0.7v1.6c-0.9-0.6-1.8-0.9-2.5-0.9c-0.4,0-0.8,0.1-1,0.3
				c-0.2,0.2-0.4,0.4-0.4,0.7c0,0.3,0.2,0.7,0.7,0.9c0.1,0.1,0.6,0.3,1.5,0.7c0.7,0.4,1.3,0.7,1.6,1.2c0.3,0.4,0.5,0.9,0.5,1.5
				c0,0.8-0.3,1.4-0.8,1.9c-0.6,0.5-1.3,0.7-2.2,0.7c-0.6,0-1.1-0.1-1.5-0.2c-0.4-0.1-0.9-0.3-1.4-0.7v-1.7c1,0.8,1.9,1.2,2.7,1.2
				c0.4,0,0.8-0.1,1-0.3c0.3-0.2,0.4-0.4,0.4-0.7c0-0.4-0.2-0.8-0.7-1c-0.4-0.2-0.9-0.5-1.5-0.7c-0.7-0.3-1.2-0.7-1.6-1.1
				c-0.4-0.4-0.5-0.9-0.5-1.5c0-0.8,0.3-1.4,0.9-1.8C115.4,11.2,116.2,11,117.1,11z"/>
		</g>
	</g>
</g>
<g id="Layer_3">
	<g>
		<path class="st3" d="M142.3,19.2c0,0-14,0-14.4,0c-0.9,0-1.8,0.5-1.8,1.6c0,2.4,6.8,5.3,7.4,5.6l-4.3,2l0.6,0.9l6.8-3
			c0,0,7.4-3,7.4-5.5C144,19.7,143.2,19.2,142.3,19.2z"/>
		<path class="st3" d="M135.1,18.2L135.1,18.2h6.4c0,0,1.1-3.9,0.9-9.5c-0.2-4.1-7.3-6.8-7.3-6.8s-7.1,2.7-7.3,6.8
			c-0.2,5.6,0.9,9.5,0.9,9.5H135.1z"/>
	</g>
	<g>
		<g>
			<path class="st3" d="M2.8,11.2l5.4,6.3v-6.3h1.7v9.1H8.4l-5.4-6.4v6.4H1.2v-9.1H2.8z"/>
			<path class="st3" d="M16.5,11.2l4,9.1h-1.9L17.7,18h-4l-0.9,2.2h-1.8l3.7-9.1H16.5z M14.2,16.7h2.9l-1.5-3.6L14.2,16.7z"/>
			<path class="st3" d="M28,11.2v1.4h-3.2v7.7H23v-7.7h-3.2v-1.4H28z"/>
			<path class="st3" d="M31.1,11.2v9.1h-1.8v-9.1H31.1z"/>
			<path class="st3" d="M37.8,11c0.9,0,1.8,0.2,2.5,0.6c0.8,0.4,1.3,0.9,1.8,1.7c0.4,0.7,0.7,1.5,0.7,2.4c0,0.8-0.2,1.6-0.7,2.4
				c-0.4,0.7-1,1.3-1.8,1.7c-0.8,0.4-1.6,0.6-2.6,0.6c-0.9,0-1.8-0.2-2.6-0.6c-0.8-0.4-1.4-1-1.8-1.7c-0.4-0.7-0.6-1.5-0.6-2.4
				c0-0.8,0.2-1.6,0.6-2.3c0.4-0.7,1-1.3,1.8-1.7C36,11.2,36.8,11,37.8,11z M34.6,15.7c0,0.6,0.1,1.1,0.4,1.6
				c0.3,0.5,0.7,0.9,1.1,1.1c0.5,0.3,1,0.4,1.7,0.4c0.9,0,1.7-0.3,2.3-0.9c0.6-0.6,0.9-1.3,0.9-2.3c0-0.6-0.1-1.1-0.4-1.6
				c-0.3-0.5-0.7-0.9-1.1-1.1c-0.5-0.3-1-0.4-1.7-0.4c-0.6,0-1.2,0.1-1.7,0.4c-0.5,0.3-0.9,0.6-1.1,1.1
				C34.7,14.5,34.6,15.1,34.6,15.7z"/>
			<path class="st3" d="M46,11.2l5.4,6.3v-6.3h1.7v9.1h-1.5l-5.4-6.4v6.4h-1.7v-9.1H46z"/>
			<path class="st3" d="M59.7,11.2l4,9.1h-1.9L60.9,18h-4L56,20.2h-1.8l3.7-9.1H59.7z M57.4,16.7h2.9l-1.5-3.6L57.4,16.7z"/>
			<path class="st3" d="M66.5,11.2v7.7h4.4v1.4h-6.2v-9.1H66.5z"/>
			<path class="st3" d="M84,11.2v1.4h-3.2v7.7H79v-7.7h-3.2v-1.4H84z"/>
			<path class="st3" d="M88.4,11.2c0.9,0,1.5,0.2,2.1,0.7c0.5,0.5,0.8,1.1,0.8,1.8c0,0.5-0.1,1-0.4,1.3s-0.7,0.7-1.2,0.9
				c0.3,0.2,0.5,0.4,0.8,0.6c0.2,0.3,0.5,0.7,0.8,1.4c0.6,1.1,1,1.9,1.2,2.3h-2c-0.1-0.2-0.3-0.5-0.5-1c-0.5-1-0.9-1.6-1.1-2
				c-0.2-0.3-0.5-0.6-0.7-0.7c-0.2-0.1-0.5-0.2-0.7-0.2h-0.6v3.8h-1.8v-9.1H88.4z M88,15c0.5,0,0.8-0.1,1.1-0.3
				c0.3-0.2,0.4-0.5,0.4-0.9c0-0.4-0.1-0.7-0.4-0.9s-0.6-0.3-1.1-0.3h-1.1V15H88z"/>
			<path class="st3" d="M98.5,11.2l4,9.1h-1.9L99.7,18h-4l-0.9,2.2h-1.8l3.7-9.1H98.5z M96.2,16.7h2.9l-1.5-3.6L96.2,16.7z"/>
			<path class="st3" d="M105.3,11.2v9.1h-1.8v-9.1H105.3z"/>
			<path class="st3" d="M108.9,11.2v7.7h4.4v1.4h-6.2v-9.1H108.9z"/>
			<path class="st3" d="M117.1,11c0.9,0,1.7,0.2,2.6,0.7v1.6c-0.9-0.6-1.8-0.9-2.5-0.9c-0.4,0-0.8,0.1-1,0.3
				c-0.2,0.2-0.4,0.4-0.4,0.7c0,0.3,0.2,0.7,0.7,0.9c0.1,0.1,0.6,0.3,1.5,0.7c0.7,0.4,1.3,0.7,1.6,1.2c0.3,0.4,0.5,0.9,0.5,1.5
				c0,0.8-0.3,1.4-0.8,1.9c-0.6,0.5-1.3,0.7-2.2,0.7c-0.6,0-1.1-0.1-1.5-0.2c-0.4-0.1-0.9-0.3-1.4-0.7v-1.7c1,0.8,1.9,1.2,2.7,1.2
				c0.4,0,0.8-0.1,1-0.3c0.3-0.2,0.4-0.4,0.4-0.7c0-0.4-0.2-0.8-0.7-1c-0.4-0.2-0.9-0.5-1.5-0.7c-0.7-0.3-1.2-0.7-1.6-1.1
				c-0.4-0.4-0.5-0.9-0.5-1.5c0-0.8,0.3-1.4,0.9-1.8C115.4,11.3,116.2,11,117.1,11z"/>
		</g>
	</g>
</g>
</svg>
